<svg width="55" height="54" viewBox="0 0 55 54" fill="none" xmlns="http://www.w3.org/2000/svg">
<g clip-path="url(#clip0_3210_749)">
<path fill-rule="evenodd" clip-rule="evenodd" d="M14 27C21.4558 27 27.5 20.9558 27.5 13.5C27.5 20.9558 33.5442 27 41 27C33.5442 27 27.5 33.0442 27.5 40.5C27.5 33.0442 21.4558 27 14 27ZM14 27C6.54417 27 0.5 33.0442 0.5 40.5C0.5 47.9558 6.54417 54 14 54C21.4558 54 27.5 47.9558 27.5 40.5C27.5 47.9558 33.5442 54 41 54C48.4558 54 54.5 47.9558 54.5 40.5C54.5 33.0442 48.4558 27 41 27C48.4558 27 54.5 20.9558 54.5 13.5C54.5 6.04417 48.4558 0 41 0C33.5442 0 27.5 6.04417 27.5 13.5C27.5 6.04417 21.4558 0 14 0C6.54417 0 0.5 6.04417 0.5 13.5C0.5 20.9558 6.54417 27 14 27Z" fill="#FCD34D"/>
</g>
<defs>
<clipPath id="clip0_3210_749">
<rect width="54" height="54" fill="white" transform="translate(0.5)"/>
</clipPath>
</defs>
</svg>
