<svg width="335" height="190" viewBox="0 0 335 190" fill="none" xmlns="http://www.w3.org/2000/svg">
<rect x="3.12256" y="147.5" width="234" height="42" rx="21" fill="black"/>
<rect x="3.12256" y="147.5" width="234" height="42" rx="21" stroke="black"/>
<path d="M32.1282 165H29.8385C29.7031 164.341 29.4661 163.763 29.1275 163.264C28.7951 162.766 28.3889 162.347 27.9088 162.009C27.4348 161.664 26.9085 161.405 26.3299 161.233C25.7513 161.061 25.1481 160.974 24.5203 160.974C23.3754 160.974 22.3382 161.264 21.4088 161.842C20.4855 162.421 19.7499 163.273 19.2021 164.4C18.6604 165.526 18.3896 166.908 18.3896 168.545C18.3896 170.183 18.6604 171.565 19.2021 172.691C19.7499 173.817 20.4855 174.67 21.4088 175.249C22.3382 175.827 23.3754 176.116 24.5203 176.116C25.1481 176.116 25.7513 176.03 26.3299 175.858C26.9085 175.686 27.4348 175.43 27.9088 175.092C28.3889 174.747 28.7951 174.325 29.1275 173.827C29.4661 173.322 29.7031 172.743 29.8385 172.091H32.1282C31.9559 173.057 31.642 173.922 31.1865 174.685C30.731 175.449 30.1647 176.098 29.4876 176.634C28.8105 177.163 28.0504 177.566 27.2071 177.843C26.37 178.12 25.4744 178.259 24.5203 178.259C22.9076 178.259 21.4734 177.865 20.2177 177.077C18.962 176.289 17.9741 175.169 17.254 173.716C16.5338 172.263 16.1737 170.54 16.1737 168.545C16.1737 166.551 16.5338 164.828 17.254 163.375C17.9741 161.922 18.962 160.802 20.2177 160.014C21.4734 159.226 22.9076 158.832 24.5203 158.832C25.4744 158.832 26.37 158.971 27.2071 159.248C28.0504 159.525 28.8105 159.931 29.4876 160.467C30.1647 160.996 30.731 161.642 31.1865 162.406C31.642 163.163 31.9559 164.027 32.1282 165ZM41.2943 178.295C40.014 178.295 38.8906 177.991 37.9242 177.381C36.964 176.772 36.2131 175.92 35.6714 174.824C35.1359 173.728 34.8681 172.448 34.8681 170.983C34.8681 169.506 35.1359 168.216 35.6714 167.114C36.2131 166.013 36.964 165.157 37.9242 164.548C38.8906 163.938 40.014 163.634 41.2943 163.634C42.5746 163.634 43.6948 163.938 44.6551 164.548C45.6214 165.157 46.3724 166.013 46.9079 167.114C47.4496 168.216 47.7204 169.506 47.7204 170.983C47.7204 172.448 47.4496 173.728 46.9079 174.824C46.3724 175.92 45.6214 176.772 44.6551 177.381C43.6948 177.991 42.5746 178.295 41.2943 178.295ZM41.2943 176.338C42.2668 176.338 43.067 176.089 43.6948 175.59C44.3227 175.092 44.7874 174.436 45.089 173.624C45.3906 172.811 45.5414 171.931 45.5414 170.983C45.5414 170.035 45.3906 169.152 45.089 168.333C44.7874 167.514 44.3227 166.853 43.6948 166.348C43.067 165.843 42.2668 165.591 41.2943 165.591C40.3217 165.591 39.5215 165.843 38.8937 166.348C38.2658 166.853 37.8011 167.514 37.4995 168.333C37.1979 169.152 37.0471 170.035 37.0471 170.983C37.0471 171.931 37.1979 172.811 37.4995 173.624C37.8011 174.436 38.2658 175.092 38.8937 175.59C39.5215 176.089 40.3217 176.338 41.2943 176.338ZM53.2255 169.469V178H51.0466V163.818H53.1517V166.034H53.3363C53.6687 165.314 54.1735 164.735 54.8505 164.298C55.5276 163.855 56.4017 163.634 57.4727 163.634C58.4329 163.634 59.2731 163.83 59.9933 164.224C60.7135 164.612 61.2736 165.203 61.6737 165.997C62.0738 166.785 62.2738 167.782 62.2738 168.989V178H60.0949V169.136C60.0949 168.022 59.8056 167.154 59.227 166.533C58.6484 165.905 57.8543 165.591 56.8449 165.591C56.1493 165.591 55.5276 165.742 54.9798 166.043C54.4381 166.345 54.0103 166.785 53.6964 167.364C53.3825 167.942 53.2255 168.644 53.2255 169.469ZM72.4232 163.818V165.665H65.0737V163.818H72.4232ZM67.2158 160.42H69.3948V173.937C69.3948 174.553 69.484 175.015 69.6625 175.322C69.8472 175.624 70.0811 175.827 70.3642 175.932C70.6535 176.03 70.9582 176.08 71.2783 176.08C71.5183 176.08 71.7153 176.067 71.8692 176.043C72.0231 176.012 72.1462 175.987 72.2385 175.969L72.6817 177.926C72.534 177.982 72.3278 178.037 72.0631 178.092C71.7984 178.154 71.4629 178.185 71.0567 178.185C70.4412 178.185 69.8379 178.052 69.247 177.788C68.6623 177.523 68.176 177.12 67.7882 176.578C67.4066 176.036 67.2158 175.353 67.2158 174.528V160.42ZM81.4945 178.295C80.1281 178.295 78.9493 177.994 77.9583 177.391C76.9735 176.781 76.2133 175.932 75.6778 174.842C75.1484 173.747 74.8837 172.473 74.8837 171.02C74.8837 169.567 75.1484 168.287 75.6778 167.179C76.2133 166.065 76.9581 165.197 77.9122 164.575C78.8724 163.947 79.9926 163.634 81.2729 163.634C82.0116 163.634 82.741 163.757 83.4612 164.003C84.1813 164.249 84.8369 164.649 85.4278 165.203C86.0187 165.751 86.4896 166.477 86.8404 167.382C87.1913 168.287 87.3667 169.401 87.3667 170.724V171.648H76.4349V169.764H85.1508C85.1508 168.964 84.9907 168.25 84.6707 167.622C84.3568 166.994 83.9074 166.499 83.3227 166.136C82.7441 165.772 82.0608 165.591 81.2729 165.591C80.405 165.591 79.6541 165.806 79.0201 166.237C78.3923 166.662 77.9091 167.216 77.5705 167.899C77.232 168.582 77.0627 169.315 77.0627 170.097V171.352C77.0627 172.423 77.2474 173.331 77.6167 174.076C77.9922 174.815 78.5123 175.378 79.1771 175.766C79.8418 176.147 80.6143 176.338 81.4945 176.338C82.067 176.338 82.584 176.258 83.0457 176.098C83.5135 175.932 83.9166 175.686 84.2552 175.359C84.5937 175.027 84.8553 174.615 85.04 174.122L87.1451 174.713C86.9235 175.427 86.5511 176.055 86.0279 176.597C85.5047 177.132 84.8584 177.551 84.089 177.852C83.3196 178.148 82.4548 178.295 81.4945 178.295ZM92.8603 169.469V178H90.6813V163.818H92.7864V166.034H92.9711C93.3035 165.314 93.8082 164.735 94.4853 164.298C95.1624 163.855 96.0364 163.634 97.1075 163.634C98.0677 163.634 98.9079 163.83 99.6281 164.224C100.348 164.612 100.908 165.203 101.308 165.997C101.709 166.785 101.909 167.782 101.909 168.989V178H99.7296V169.136C99.7296 168.022 99.4403 167.154 98.8617 166.533C98.2831 165.905 97.4891 165.591 96.4796 165.591C95.7841 165.591 95.1624 165.742 94.6146 166.043C94.0729 166.345 93.6451 166.785 93.3312 167.364C93.0173 167.942 92.8603 168.644 92.8603 169.469ZM112.058 163.818V165.665H104.708V163.818H112.058ZM106.851 160.42H109.03V173.937C109.03 174.553 109.119 175.015 109.297 175.322C109.482 175.624 109.716 175.827 109.999 175.932C110.288 176.03 110.593 176.08 110.913 176.08C111.153 176.08 111.35 176.067 111.504 176.043C111.658 176.012 111.781 175.987 111.873 175.969L112.316 177.926C112.169 177.982 111.963 178.037 111.698 178.092C111.433 178.154 111.098 178.185 110.691 178.185C110.076 178.185 109.473 178.052 108.882 177.788C108.297 177.523 107.811 177.12 107.423 176.578C107.041 176.036 106.851 175.353 106.851 174.528V160.42ZM138.159 165H135.87C135.734 164.341 135.497 163.763 135.159 163.264C134.826 162.766 134.42 162.347 133.94 162.009C133.466 161.664 132.94 161.405 132.361 161.233C131.783 161.061 131.179 160.974 130.552 160.974C129.407 160.974 128.369 161.264 127.44 161.842C126.517 162.421 125.781 163.273 125.233 164.4C124.692 165.526 124.421 166.908 124.421 168.545C124.421 170.183 124.692 171.565 125.233 172.691C125.781 173.817 126.517 174.67 127.44 175.249C128.369 175.827 129.407 176.116 130.552 176.116C131.179 176.116 131.783 176.03 132.361 175.858C132.94 175.686 133.466 175.43 133.94 175.092C134.42 174.747 134.826 174.325 135.159 173.827C135.497 173.322 135.734 172.743 135.87 172.091H138.159C137.987 173.057 137.673 173.922 137.218 174.685C136.762 175.449 136.196 176.098 135.519 176.634C134.842 177.163 134.082 177.566 133.238 177.843C132.401 178.12 131.506 178.259 130.552 178.259C128.939 178.259 127.505 177.865 126.249 177.077C124.993 176.289 124.005 175.169 123.285 173.716C122.565 172.263 122.205 170.54 122.205 168.545C122.205 166.551 122.565 164.828 123.285 163.375C124.005 161.922 124.993 160.802 126.249 160.014C127.505 159.226 128.939 158.832 130.552 158.832C131.506 158.832 132.401 158.971 133.238 159.248C134.082 159.525 134.842 159.931 135.519 160.467C136.196 160.996 136.762 161.642 137.218 162.406C137.673 163.163 137.987 164.027 138.159 165ZM141.564 178V163.818H143.669V165.96H143.817C144.075 165.259 144.543 164.689 145.22 164.252C145.897 163.815 146.661 163.597 147.51 163.597C147.67 163.597 147.87 163.6 148.11 163.606C148.35 163.612 148.532 163.621 148.655 163.634V165.849C148.581 165.831 148.412 165.803 148.147 165.766C147.889 165.723 147.615 165.702 147.325 165.702C146.636 165.702 146.021 165.846 145.479 166.136C144.943 166.419 144.519 166.813 144.205 167.317C143.897 167.816 143.743 168.385 143.743 169.026V178H141.564ZM156.752 178.295C155.386 178.295 154.207 177.994 153.216 177.391C152.231 176.781 151.471 175.932 150.936 174.842C150.406 173.747 150.142 172.473 150.142 171.02C150.142 169.567 150.406 168.287 150.936 167.179C151.471 166.065 152.216 165.197 153.17 164.575C154.13 163.947 155.25 163.634 156.531 163.634C157.269 163.634 157.999 163.757 158.719 164.003C159.439 164.249 160.095 164.649 160.686 165.203C161.276 165.751 161.747 166.477 162.098 167.382C162.449 168.287 162.625 169.401 162.625 170.724V171.648H151.693V169.764H160.409C160.409 168.964 160.249 168.25 159.928 167.622C159.615 166.994 159.165 166.499 158.58 166.136C158.002 165.772 157.319 165.591 156.531 165.591C155.663 165.591 154.912 165.806 154.278 166.237C153.65 166.662 153.167 167.216 152.828 167.899C152.49 168.582 152.321 169.315 152.321 170.097V171.352C152.321 172.423 152.505 173.331 152.875 174.076C153.25 174.815 153.77 175.378 154.435 175.766C155.1 176.147 155.872 176.338 156.752 176.338C157.325 176.338 157.842 176.258 158.303 176.098C158.771 175.932 159.174 175.686 159.513 175.359C159.852 175.027 160.113 174.615 160.298 174.122L162.403 174.713C162.181 175.427 161.809 176.055 161.286 176.597C160.763 177.132 160.116 177.551 159.347 177.852C158.577 178.148 157.713 178.295 156.752 178.295ZM170.112 178.332C169.214 178.332 168.398 178.163 167.666 177.825C166.933 177.48 166.352 176.984 165.921 176.338C165.49 175.686 165.274 174.898 165.274 173.974C165.274 173.162 165.434 172.503 165.754 171.999C166.075 171.488 166.502 171.088 167.038 170.798C167.573 170.509 168.164 170.294 168.811 170.152C169.463 170.004 170.119 169.887 170.777 169.801C171.639 169.69 172.338 169.607 172.873 169.552C173.415 169.49 173.809 169.389 174.055 169.247C174.307 169.106 174.433 168.859 174.433 168.509V168.435C174.433 167.524 174.184 166.816 173.686 166.311C173.193 165.806 172.445 165.554 171.442 165.554C170.402 165.554 169.586 165.782 168.995 166.237C168.404 166.693 167.989 167.179 167.749 167.696L165.681 166.957C166.05 166.096 166.542 165.425 167.158 164.945C167.78 164.458 168.457 164.12 169.189 163.929C169.928 163.732 170.654 163.634 171.368 163.634C171.824 163.634 172.347 163.689 172.938 163.8C173.535 163.904 174.11 164.123 174.664 164.455C175.224 164.788 175.689 165.289 176.058 165.96C176.428 166.631 176.612 167.53 176.612 168.656V178H174.433V176.08H174.323C174.175 176.387 173.929 176.717 173.584 177.067C173.239 177.418 172.781 177.717 172.208 177.963C171.636 178.209 170.937 178.332 170.112 178.332ZM170.445 176.375C171.307 176.375 172.033 176.206 172.624 175.867C173.221 175.529 173.67 175.092 173.972 174.556C174.28 174.021 174.433 173.457 174.433 172.866V170.872C174.341 170.983 174.138 171.085 173.824 171.177C173.516 171.263 173.159 171.34 172.753 171.408C172.353 171.469 171.962 171.525 171.58 171.574C171.205 171.617 170.9 171.654 170.666 171.685C170.1 171.759 169.571 171.879 169.078 172.045C168.592 172.205 168.198 172.448 167.897 172.774C167.601 173.094 167.453 173.531 167.453 174.085C167.453 174.842 167.733 175.415 168.294 175.803C168.86 176.184 169.577 176.375 170.445 176.375ZM186.757 163.818V165.665H179.408V163.818H186.757ZM181.55 160.42H183.729V173.937C183.729 174.553 183.818 175.015 183.996 175.322C184.181 175.624 184.415 175.827 184.698 175.932C184.987 176.03 185.292 176.08 185.612 176.08C185.852 176.08 186.049 176.067 186.203 176.043C186.357 176.012 186.48 175.987 186.572 175.969L187.016 177.926C186.868 177.982 186.662 178.037 186.397 178.092C186.132 178.154 185.797 178.185 185.391 178.185C184.775 178.185 184.172 178.052 183.581 177.788C182.996 177.523 182.51 177.12 182.122 176.578C181.741 176.036 181.55 175.353 181.55 174.528V160.42ZM190.035 178V163.818H192.214V178H190.035ZM191.143 161.455C190.718 161.455 190.352 161.31 190.044 161.021C189.742 160.731 189.592 160.384 189.592 159.977C189.592 159.571 189.742 159.223 190.044 158.934C190.352 158.645 190.718 158.5 191.143 158.5C191.568 158.5 191.931 158.645 192.232 158.934C192.54 159.223 192.694 159.571 192.694 159.977C192.694 160.384 192.54 160.731 192.232 161.021C191.931 161.31 191.568 161.455 191.143 161.455ZM201.966 178.295C200.686 178.295 199.562 177.991 198.596 177.381C197.636 176.772 196.885 175.92 196.343 174.824C195.808 173.728 195.54 172.448 195.54 170.983C195.54 169.506 195.808 168.216 196.343 167.114C196.885 166.013 197.636 165.157 198.596 164.548C199.562 163.938 200.686 163.634 201.966 163.634C203.246 163.634 204.367 163.938 205.327 164.548C206.293 165.157 207.044 166.013 207.58 167.114C208.121 168.216 208.392 169.506 208.392 170.983C208.392 172.448 208.121 173.728 207.58 174.824C207.044 175.92 206.293 176.772 205.327 177.381C204.367 177.991 203.246 178.295 201.966 178.295ZM201.966 176.338C202.939 176.338 203.739 176.089 204.367 175.59C204.995 175.092 205.459 174.436 205.761 173.624C206.062 172.811 206.213 171.931 206.213 170.983C206.213 170.035 206.062 169.152 205.761 168.333C205.459 167.514 204.995 166.853 204.367 166.348C203.739 165.843 202.939 165.591 201.966 165.591C200.994 165.591 200.193 165.843 199.566 166.348C198.938 166.853 198.473 167.514 198.171 168.333C197.87 169.152 197.719 170.035 197.719 170.983C197.719 171.931 197.87 172.811 198.171 173.624C198.473 174.436 198.938 175.092 199.566 175.59C200.193 176.089 200.994 176.338 201.966 176.338ZM213.897 169.469V178H211.718V163.818H213.824V166.034H214.008C214.341 165.314 214.845 164.735 215.522 164.298C216.199 163.855 217.074 163.634 218.145 163.634C219.105 163.634 219.945 163.83 220.665 164.224C221.385 164.612 221.945 165.203 222.346 165.997C222.746 166.785 222.946 167.782 222.946 168.989V178H220.767V169.136C220.767 168.022 220.477 167.154 219.899 166.533C219.32 165.905 218.526 165.591 217.517 165.591C216.821 165.591 216.199 165.742 215.652 166.043C215.11 166.345 214.682 166.785 214.368 167.364C214.054 167.942 213.897 168.644 213.897 169.469Z" fill="#FAFAFA"/>
<rect x="206.697" y="93.646" width="133" height="42" rx="21" transform="rotate(21 206.697 93.646)" stroke="#262626"/>
<path d="M208.641 127.062L215.417 109.409L221.589 111.778C222.819 112.25 223.751 112.852 224.387 113.584C225.025 114.31 225.402 115.104 225.519 115.967C225.639 116.824 225.533 117.683 225.202 118.545C224.911 119.303 224.536 119.878 224.076 120.269C223.622 120.661 223.121 120.917 222.574 121.037C222.033 121.159 221.483 121.192 220.924 121.136L220.858 121.308C221.385 121.55 221.855 121.948 222.269 122.502C222.682 123.057 222.95 123.726 223.07 124.511C223.191 125.296 223.073 126.154 222.715 127.085C222.376 127.97 221.869 128.688 221.195 129.241C220.522 129.793 219.672 130.11 218.645 130.19C217.619 130.271 216.41 130.044 215.019 129.51L208.641 127.062ZM211.507 125.986L215.747 127.614C217.144 128.15 218.239 128.261 219.032 127.945C219.834 127.627 220.383 127.079 220.681 126.304C220.91 125.706 220.97 125.096 220.86 124.473C220.751 123.845 220.474 123.27 220.028 122.75C219.584 122.223 218.977 121.812 218.207 121.517L213.862 119.849L211.507 125.986ZM214.577 117.987L218.542 119.509C219.186 119.756 219.815 119.853 220.429 119.798C221.049 119.746 221.599 119.549 222.08 119.206C222.567 118.865 222.93 118.385 223.168 117.764C223.466 116.988 223.448 116.227 223.115 115.479C222.785 114.726 222.033 114.124 220.861 113.674L216.827 112.126L214.577 117.987ZM224.152 133.016L229.234 119.776L231.2 120.531L230.432 122.53L230.57 122.583C231.063 122.021 231.704 121.657 232.492 121.492C233.281 121.326 234.072 121.396 234.865 121.7C235.014 121.758 235.2 121.832 235.422 121.924C235.644 122.016 235.81 122.089 235.92 122.145L235.126 124.214C235.064 124.17 234.916 124.084 234.682 123.954C234.456 123.821 234.208 123.703 233.938 123.599C233.294 123.352 232.668 123.267 232.059 123.343C231.457 123.415 230.92 123.631 230.446 123.989C229.98 124.345 229.632 124.821 229.402 125.419L226.186 133.797L224.152 133.016ZM236.96 138.289C236.121 137.967 235.421 137.516 234.858 136.938C234.298 136.354 233.932 135.683 233.762 134.925C233.593 134.161 233.674 133.348 234.005 132.486C234.297 131.728 234.682 131.17 235.162 130.814C235.644 130.452 236.186 130.231 236.79 130.153C237.394 130.075 238.022 130.086 238.677 130.185C239.339 130.281 239.993 130.407 240.638 130.562C241.482 130.768 242.164 130.941 242.684 131.081C243.212 131.217 243.616 131.264 243.897 131.22C244.183 131.178 244.389 130.993 244.515 130.666L244.541 130.597C244.868 129.747 244.889 128.996 244.604 128.346C244.325 127.699 243.718 127.195 242.781 126.836C241.81 126.463 240.967 126.383 240.252 126.597C239.537 126.81 238.975 127.115 238.565 127.512L236.899 126.081C237.553 125.409 238.253 124.959 239 124.731C239.754 124.5 240.508 124.427 241.26 124.511C242.02 124.592 242.734 124.76 243.4 125.016C243.825 125.179 244.294 125.419 244.806 125.734C245.326 126.046 245.785 126.456 246.183 126.965C246.587 127.476 246.841 128.111 246.945 128.869C247.05 129.628 246.9 130.533 246.496 131.585L243.148 140.308L241.113 139.527L241.802 137.734L241.698 137.694C241.45 137.929 241.102 138.148 240.655 138.352C240.207 138.556 239.672 138.67 239.049 138.695C238.427 138.72 237.73 138.584 236.96 138.289ZM237.972 136.581C238.777 136.889 239.515 136.992 240.188 136.887C240.867 136.785 241.443 136.538 241.917 136.146C242.396 135.757 242.741 135.286 242.953 134.734L243.668 132.873C243.542 132.943 243.316 132.965 242.99 132.939C242.672 132.909 242.311 132.853 241.907 132.77C241.512 132.684 241.127 132.596 240.753 132.505C240.387 132.411 240.089 132.336 239.86 132.281C239.305 132.147 238.767 132.07 238.248 132.048C237.737 132.023 237.282 132.109 236.884 132.306C236.493 132.499 236.198 132.854 236 133.371C235.729 134.078 235.785 134.712 236.169 135.275C236.561 135.834 237.162 136.27 237.972 136.581ZM251.952 134.549L248.895 142.514L246.861 141.733L251.943 128.493L253.908 129.248L253.114 131.316L253.287 131.383C253.855 130.829 254.534 130.47 255.322 130.305C256.113 130.134 257.009 130.24 258.008 130.624C258.905 130.968 259.619 131.453 260.15 132.079C260.683 132.699 260.994 133.451 261.083 134.336C261.175 135.215 261.004 136.217 260.572 137.344L257.342 145.757L255.308 144.976L258.484 136.701C258.884 135.661 258.925 134.747 258.607 133.959C258.292 133.166 257.663 132.588 256.721 132.226C256.072 131.977 255.437 131.895 254.818 131.98C254.204 132.068 253.647 132.325 253.146 132.753C252.646 133.181 252.248 133.779 251.952 134.549ZM265.953 149.378C264.85 148.955 263.983 148.302 263.352 147.421C262.723 146.533 262.367 145.487 262.283 144.281C262.2 143.069 262.429 141.762 262.967 140.36C263.501 138.969 264.202 137.854 265.072 137.014C265.942 136.174 266.909 135.639 267.973 135.408C269.037 135.177 270.127 135.276 271.242 135.704C272.104 136.035 272.73 136.44 273.119 136.919C273.517 137.394 273.778 137.864 273.904 138.328C274.037 138.788 274.134 139.161 274.195 139.448L274.368 139.515L276.869 132.998L278.904 133.779L272.127 151.432L270.162 150.678L270.943 148.643L270.701 148.551C270.459 148.735 270.13 148.958 269.713 149.22C269.298 149.476 268.78 149.649 268.158 149.74C267.538 149.826 266.803 149.705 265.953 149.378ZM266.93 147.657C267.746 147.97 268.518 148.022 269.244 147.813C269.972 147.598 270.629 147.168 271.213 146.522C271.8 145.87 272.285 145.044 272.669 144.044C273.048 143.056 273.236 142.136 273.234 141.285C273.233 140.427 273.031 139.684 272.626 139.054C272.224 138.418 271.609 137.941 270.782 137.624C269.92 137.293 269.117 137.238 268.372 137.46C267.636 137.679 266.979 138.109 266.403 138.751C265.834 139.39 265.372 140.175 265.014 141.106C264.652 142.049 264.467 142.96 264.459 143.84C264.459 144.717 264.656 145.492 265.051 146.164C265.453 146.833 266.08 147.331 266.93 147.657ZM276.135 152.971L281.218 139.731L283.252 140.512L278.17 153.752L276.135 152.971ZM283.099 137.921C282.703 137.769 282.412 137.503 282.229 137.122C282.051 136.744 282.035 136.365 282.18 135.986C282.326 135.607 282.591 135.336 282.977 135.174C283.368 135.014 283.761 135.011 284.158 135.163C284.554 135.315 284.842 135.58 285.019 135.958C285.203 136.339 285.222 136.719 285.077 137.098C284.931 137.477 284.663 137.747 284.272 137.906C283.886 138.068 283.496 138.073 283.099 137.921ZM286.987 147.998L283.93 155.963L281.895 155.182L286.978 141.942L288.943 142.696L288.149 144.765L288.321 144.831C288.89 144.278 289.568 143.919 290.357 143.753C291.148 143.582 292.043 143.689 293.043 144.072C293.94 144.417 294.654 144.901 295.185 145.527C295.718 146.147 296.029 146.9 296.118 147.785C296.209 148.663 296.039 149.666 295.606 150.792L292.377 159.205L290.343 158.424L293.519 150.149C293.918 149.109 293.959 148.195 293.642 147.408C293.327 146.614 292.698 146.037 291.756 145.675C291.106 145.426 290.472 145.344 289.852 145.429C289.239 145.516 288.681 145.774 288.181 146.201C287.681 146.629 287.283 147.228 286.987 147.998ZM299.427 167.924C298.444 167.547 297.648 167.096 297.038 166.572C296.426 166.054 295.963 165.5 295.648 164.911C295.337 164.33 295.132 163.757 295.033 163.192L297.09 162.676C297.181 162.988 297.308 163.353 297.47 163.771C297.631 164.195 297.911 164.616 298.311 165.034C298.715 165.459 299.316 165.825 300.115 166.131C301.184 166.542 302.165 166.622 303.059 166.372C303.953 166.121 304.612 165.444 305.035 164.341L306.067 161.652L305.895 161.586C305.653 161.77 305.326 161.987 304.913 162.237C304.508 162.484 303.997 162.647 303.38 162.727C302.771 162.803 302.035 162.675 301.173 162.344C300.104 161.934 299.242 161.313 298.585 160.481C297.935 159.651 297.548 158.658 297.424 157.503C297.306 156.35 297.512 155.084 298.041 153.705C298.562 152.349 299.254 151.26 300.117 150.437C300.982 149.609 301.946 149.082 303.008 148.857C304.072 148.626 305.162 148.724 306.277 149.152C307.139 149.483 307.767 149.889 308.163 150.371C308.566 150.849 308.833 151.32 308.964 151.786C309.103 152.248 309.204 152.623 309.265 152.91L309.472 152.99L310.279 150.886L312.244 151.641L307.016 165.26C306.58 166.398 305.966 167.224 305.175 167.738C304.388 168.26 303.497 168.521 302.501 168.521C301.509 168.529 300.484 168.33 299.427 167.924ZM302.15 160.623C302.966 160.936 303.728 161.014 304.434 160.857C305.141 160.699 305.775 160.326 306.337 159.738C306.899 159.149 307.368 158.367 307.743 157.39C308.109 156.436 308.289 155.539 308.282 154.699C308.274 153.859 308.069 153.124 307.664 152.494C307.26 151.864 306.644 151.39 305.817 151.072C304.955 150.741 304.152 150.684 303.41 150.9C302.674 151.118 302.02 151.54 301.451 152.166C300.887 152.793 300.433 153.555 300.089 154.451C299.736 155.371 299.567 156.239 299.583 157.056C299.607 157.87 299.827 158.587 300.241 159.208C300.663 159.825 301.3 160.296 302.15 160.623Z" fill="#262626"/>
<rect x="194.525" y="42.306" width="146" height="42" rx="21" transform="rotate(17 194.525 42.306)" fill="black"/>
<rect x="194.525" y="42.306" width="146" height="42" rx="21" transform="rotate(17 194.525 42.306)" stroke="black"/>
<path d="M204.323 57.4222L206.937 58.2212L208.493 75.1102L208.705 75.175L219.439 62.0437L222.053 62.8427L216.524 80.9256L214.476 80.2993L218.676 66.5606L218.499 66.5066L208.648 78.5177L206.67 77.913L205.22 62.4466L205.043 62.3926L200.843 76.1313L198.794 75.5051L204.323 57.4222ZM224.526 83.7195C223.666 83.4568 222.936 83.0564 222.335 82.5185C221.735 81.9747 221.323 81.3308 221.1 80.5868C220.879 79.8368 220.903 79.0204 221.173 78.1375C221.411 77.3605 221.756 76.7774 222.21 76.3883C222.666 75.9933 223.192 75.7358 223.788 75.6157C224.385 75.4956 225.013 75.4624 225.673 75.5159C226.34 75.5654 227.001 75.6452 227.656 75.7554C228.512 75.9014 229.205 76.0262 229.733 76.1298C230.269 76.2293 230.675 76.2473 230.952 76.1839C231.235 76.1223 231.428 75.9238 231.53 75.5882L231.552 75.5176C231.818 74.6464 231.787 73.8966 231.458 73.2682C231.134 72.6415 230.493 72.1815 229.533 71.8882C228.539 71.584 227.692 71.5634 226.994 71.8262C226.296 72.089 225.756 72.4326 225.375 72.8568L223.613 71.5458C224.219 70.8297 224.886 70.332 225.615 70.0529C226.351 69.7696 227.098 69.6438 227.854 69.6755C228.618 69.7031 229.341 69.8213 230.024 70.03C230.46 70.1632 230.944 70.3692 231.477 70.6479C232.017 70.9225 232.504 71.2997 232.936 71.7796C233.375 72.2612 233.672 72.8768 233.829 73.6264C233.986 74.376 233.9 75.2894 233.571 76.3666L230.839 85.3021L228.755 84.665L229.317 82.8284L229.211 82.7961C228.98 83.0472 228.648 83.2901 228.216 83.5249C227.783 83.7596 227.258 83.911 226.638 83.9791C226.019 84.0472 225.315 83.9607 224.526 83.7195ZM225.416 81.9448C226.24 82.1968 226.984 82.2473 227.648 82.0963C228.318 81.9471 228.876 81.6605 229.321 81.2366C229.772 80.8145 230.083 80.3209 230.256 79.7558L230.839 77.8486C230.719 77.9276 230.495 77.9653 230.167 77.9618C229.848 77.9542 229.484 77.9234 229.076 77.8694C228.675 77.8113 228.285 77.75 227.906 77.6855C227.534 77.6169 227.232 77.5632 226.999 77.5242C226.436 77.4293 225.895 77.3893 225.375 77.4043C224.863 77.4151 224.416 77.5325 224.032 77.7563C223.656 77.976 223.387 78.3507 223.225 78.8805C223.003 79.6045 223.104 80.2338 223.526 80.7684C223.956 81.2989 224.586 81.6911 225.416 81.9448ZM234.642 86.4648L238.789 72.9027L240.802 73.5182L240.176 75.5666L240.317 75.6098C240.769 75.0144 241.383 74.6066 242.158 74.3867C242.934 74.1667 243.727 74.1809 244.54 74.4292C244.693 74.476 244.883 74.5375 245.111 74.6135C245.339 74.6896 245.51 74.7515 245.624 74.7993L244.976 76.9184C244.911 76.8791 244.757 76.8031 244.515 76.6904C244.28 76.5737 244.024 76.473 243.748 76.3884C243.088 76.1868 242.457 76.1452 241.855 76.2635C241.26 76.3777 240.739 76.6302 240.291 77.0211C239.851 77.408 239.537 77.9074 239.35 78.5196L236.726 87.1019L234.642 86.4648ZM247.348 84.9426L248.101 82.3535L248.524 82.4831L256.304 78.2577L258.882 79.046L250.606 83.5058L250.43 83.4518L247.348 84.9426ZM243.893 89.2932L249.422 71.2103L251.506 71.8474L245.977 89.9303L243.893 89.2932ZM252.511 91.9279L249.265 83.5978L251.191 82.6032L255.16 92.7377L252.511 91.9279ZM262.459 95.2783C261.153 94.8788 260.114 94.2458 259.342 93.3792C258.579 92.5085 258.1 91.4739 257.906 90.2754C257.721 89.0729 257.84 87.7771 258.265 86.3879C258.689 84.9987 259.317 83.8517 260.147 82.9469C260.985 82.0381 261.951 81.4259 263.045 81.1103C264.147 80.7906 265.31 80.818 266.534 81.1923C267.241 81.4082 267.902 81.7392 268.519 82.1852C269.136 82.6312 269.646 83.2055 270.049 83.9081C270.454 84.6047 270.692 85.437 270.762 86.4048C270.833 87.3727 270.675 88.4894 270.289 89.755L270.019 90.6379L259.564 87.4418L260.115 85.6406L268.45 88.1889C268.684 87.4236 268.74 86.694 268.617 86C268.501 85.3078 268.216 84.7026 267.763 84.1844C267.316 83.6679 266.715 83.2945 265.962 83.0641C265.132 82.8104 264.351 82.7969 263.619 83.0235C262.894 83.2461 262.27 83.6346 261.746 84.189C261.223 84.7434 260.847 85.3944 260.618 86.142L260.251 87.3428C259.938 88.367 259.849 89.2893 259.985 90.1095C260.128 90.9256 260.461 91.6163 260.983 92.1815C261.507 92.7408 262.19 93.1491 263.032 93.4065C263.579 93.5739 264.097 93.6485 264.585 93.6304C265.081 93.6083 265.539 93.4907 265.958 93.2777C266.379 93.0588 266.75 92.7409 267.07 92.324L268.91 93.5046C268.49 94.1226 267.95 94.6141 267.291 94.9791C266.635 95.3383 265.894 95.5496 265.07 95.6131C264.248 95.6707 263.378 95.5591 262.459 95.2783ZM281.376 85.9229L280.836 87.6888L273.807 85.54L274.347 83.7741L281.376 85.9229ZM277.389 81.1511L279.473 81.7882L275.521 94.7146C275.341 95.3032 275.291 95.7708 275.372 96.1173C275.461 96.4597 275.625 96.7223 275.865 96.9052C276.113 97.084 276.39 97.2201 276.696 97.3137C276.926 97.3839 277.117 97.4297 277.272 97.4512C277.428 97.4667 277.553 97.4792 277.647 97.4885L277.498 99.4899C277.341 99.4997 277.127 99.4924 276.858 99.468C276.587 99.4495 276.257 99.3808 275.869 99.2621C275.28 99.0821 274.742 98.7792 274.254 98.3533C273.772 97.9292 273.425 97.4015 273.213 96.7701C273.006 96.1405 273.023 95.4314 273.264 94.6426L277.389 81.1511ZM280.364 100.443L284.51 86.8812L286.594 87.5182L282.448 101.08L280.364 100.443ZM286.261 84.9447C285.855 84.8206 285.547 84.5752 285.337 84.2085C285.133 83.8437 285.091 83.467 285.209 83.0785C285.328 82.69 285.574 82.4015 285.947 82.213C286.326 82.0264 286.718 81.9951 287.125 82.1193C287.531 82.2435 287.836 82.488 288.04 82.8528C288.249 83.2195 288.295 83.597 288.176 83.9855C288.057 84.374 287.808 84.6616 287.43 84.8483C287.056 85.0368 286.667 85.0689 286.261 84.9447ZM290.842 94.7258L288.348 102.884L286.264 102.247L290.41 88.6851L292.424 89.3005L291.776 91.4196L291.952 91.4736C292.481 90.8821 293.133 90.4763 293.908 90.2564C294.685 90.0305 295.586 90.0742 296.61 90.3873C297.528 90.668 298.274 91.1021 298.848 91.6893C299.423 92.2707 299.786 92.9996 299.936 93.8759C300.088 94.7463 299.988 95.7584 299.635 96.9121L297.001 105.53L294.917 104.893L297.509 96.4163C297.834 95.3509 297.811 94.4363 297.44 93.6727C297.07 92.9031 296.402 92.3707 295.437 92.0756C294.772 91.8722 294.133 91.8347 293.521 91.9629C292.915 92.093 292.377 92.3888 291.908 92.8503C291.439 93.3119 291.083 93.937 290.842 94.7258ZM304.642 113.736C303.635 113.428 302.809 113.034 302.164 112.554C301.518 112.079 301.017 111.559 300.662 110.994C300.311 110.436 300.067 109.878 299.928 109.321L301.944 108.663C302.057 108.968 302.209 109.323 302.4 109.729C302.59 110.141 302.899 110.542 303.327 110.93C303.76 111.326 304.385 111.649 305.203 111.899C306.298 112.234 307.282 112.245 308.157 111.933C309.031 111.621 309.641 110.9 309.986 109.77L310.829 107.015L310.652 106.961C310.423 107.162 310.112 107.401 309.718 107.68C309.331 107.954 308.833 108.153 308.223 108.275C307.62 108.393 306.877 108.318 305.994 108.048C304.9 107.713 303.996 107.153 303.283 106.369C302.576 105.586 302.121 104.623 301.917 103.48C301.719 102.338 301.836 101.061 302.268 99.6478C302.692 98.2586 303.306 97.1237 304.11 96.2429C304.915 95.3563 305.84 94.7636 306.884 94.4649C307.93 94.1603 309.023 94.1825 310.165 94.5316C311.048 94.8016 311.704 95.1629 312.132 95.6156C312.567 96.0642 312.867 96.5162 313.03 96.9716C313.201 97.4229 313.327 97.7897 313.408 98.072L313.62 98.1368L314.279 95.9824L316.292 96.5978L312.027 110.548C311.671 111.714 311.116 112.581 310.363 113.149C309.614 113.724 308.743 114.047 307.75 114.117C306.761 114.194 305.725 114.067 304.642 113.736ZM306.849 106.262C307.685 106.518 308.45 106.542 309.144 106.336C309.838 106.13 310.444 105.714 310.964 105.087C311.484 104.461 311.897 103.647 312.203 102.647C312.502 101.67 312.618 100.762 312.552 99.9247C312.486 99.0871 312.23 98.3683 311.783 97.7681C311.335 97.1679 310.688 96.7382 309.84 96.4791C308.957 96.2091 308.153 96.2079 307.428 96.4753C306.708 96.7445 306.086 97.2108 305.561 97.8743C305.043 98.5395 304.643 99.3313 304.362 100.25C304.074 101.191 303.967 102.069 304.04 102.883C304.12 103.693 304.389 104.393 304.846 104.983C305.31 105.57 305.978 105.996 306.849 106.262Z" fill="#FAFAFA"/>
<rect x="59.5468" y="103.741" width="132" height="42" rx="21" transform="rotate(-4 59.5468 103.741)" stroke="#262626"/>
<path d="M75.4305 133.205L74.1114 114.342L80.4851 113.896C81.9649 113.793 83.1932 113.975 84.17 114.444C85.1526 114.906 85.9026 115.572 86.4201 116.443C86.9376 117.314 87.2352 118.305 87.3129 119.416C87.3906 120.528 87.2341 121.554 86.8432 122.494C86.4585 123.434 85.8153 124.208 84.9136 124.814C84.0115 125.413 82.8267 125.765 81.3592 125.867L76.7908 126.187L76.6491 124.16L81.1438 123.846C82.157 123.775 82.9583 123.543 83.5479 123.151C84.1374 122.758 84.5495 122.254 84.7842 121.639C85.0246 121.017 85.1184 120.329 85.0655 119.574C85.0127 118.818 84.8243 118.153 84.5002 117.577C84.1822 117.001 83.7013 116.565 83.0575 116.271C82.4133 115.97 81.5785 115.856 80.5531 115.928L76.5373 116.209L77.7146 133.045L75.4305 133.205ZM95.7857 132.115C94.8893 132.178 94.0639 132.066 93.3095 131.779C92.5548 131.486 91.94 131.032 91.4651 130.418C90.9897 129.797 90.7199 129.026 90.6555 128.105C90.5988 127.294 90.7125 126.626 90.9966 126.1C91.2802 125.568 91.6791 125.14 92.1931 124.814C92.7071 124.488 93.2816 124.232 93.9164 124.045C94.557 123.852 95.2028 123.69 95.8538 123.558C96.7057 123.387 97.3968 123.256 97.9272 123.163C98.4632 123.064 98.8491 122.935 99.0849 122.777C99.3267 122.618 99.4354 122.363 99.411 122.014L99.4058 121.94C99.3423 121.031 99.0442 120.342 98.5116 119.874C97.9852 119.404 97.2215 119.205 96.2207 119.275C95.183 119.347 94.3853 119.631 93.8276 120.127C93.2699 120.623 92.8893 121.137 92.6859 121.669L90.5712 121.077C90.8795 120.191 91.324 119.488 91.9045 118.966C92.4908 118.437 93.1426 118.052 93.86 117.811C94.5831 117.563 95.3007 117.414 96.013 117.364C96.4674 117.332 96.9932 117.351 97.5904 117.421C98.1933 117.483 98.7827 117.661 99.3585 117.954C99.9404 118.247 100.439 118.715 100.854 119.358C101.269 120.002 101.516 120.885 101.595 122.009L102.247 131.33L100.073 131.482L99.9391 129.566L99.8286 129.574C99.7027 129.891 99.48 130.237 99.1606 130.611C98.8413 130.985 98.4046 131.315 97.8508 131.6C97.2969 131.886 96.6085 132.057 95.7857 132.115ZM95.9808 130.139C96.8404 130.079 97.5532 129.859 98.119 129.48C98.691 129.101 99.1088 128.634 99.3723 128.079C99.642 127.523 99.7562 126.95 99.715 126.361L99.5758 124.371C99.4915 124.488 99.2959 124.604 98.9892 124.718C98.6882 124.825 98.3374 124.927 97.9369 125.023C97.5421 125.112 97.156 125.195 96.7788 125.27C96.4072 125.34 96.1058 125.398 95.8746 125.445C95.3149 125.558 94.7952 125.715 94.3156 125.915C93.8416 126.108 93.4656 126.378 93.1875 126.725C92.9151 127.065 92.7982 127.511 92.8369 128.064C92.8897 128.819 93.209 129.37 93.7948 129.718C94.3863 130.059 95.115 130.2 95.9808 130.139ZM106.214 131.052L105.225 116.905L107.399 116.753L108.388 130.9L106.214 131.052ZM106.165 114.47C105.742 114.5 105.366 114.381 105.039 114.114C104.718 113.846 104.543 113.51 104.515 113.105C104.486 112.699 104.613 112.342 104.893 112.032C105.18 111.722 105.535 111.552 105.959 111.523C106.383 111.493 106.755 111.612 107.076 111.88C107.403 112.147 107.581 112.483 107.61 112.888C107.638 113.293 107.509 113.651 107.222 113.961C106.941 114.271 106.589 114.44 106.165 114.47ZM117.732 130.543C116.553 130.626 115.491 130.401 114.547 129.868C113.602 129.33 112.837 128.532 112.251 127.474C111.664 126.411 111.319 125.13 111.214 123.632C111.11 122.146 111.275 120.838 111.708 119.71C112.141 118.581 112.791 117.687 113.658 117.028C114.525 116.369 115.555 115.998 116.746 115.914C117.667 115.85 118.405 115.953 118.961 116.222C119.522 116.485 119.958 116.8 120.267 117.168C120.582 117.528 120.828 117.826 121.005 118.06L121.189 118.047L120.703 111.084L122.876 110.932L124.195 129.795L122.095 129.942L121.943 127.768L121.685 127.786C121.544 128.055 121.339 128.397 121.072 128.81C120.804 129.218 120.408 129.594 119.883 129.939C119.358 130.278 118.64 130.48 117.732 130.543ZM117.89 128.57C118.762 128.509 119.483 128.23 120.053 127.734C120.622 127.231 121.035 126.564 121.292 125.731C121.548 124.893 121.639 123.939 121.564 122.871C121.49 121.815 121.272 120.901 120.909 120.131C120.547 119.354 120.049 118.766 119.416 118.366C118.783 117.959 118.024 117.787 117.14 117.849C116.219 117.913 115.468 118.203 114.887 118.719C114.312 119.228 113.899 119.896 113.648 120.722C113.403 121.541 113.315 122.448 113.385 123.443C113.455 124.45 113.673 125.354 114.037 126.155C114.408 126.95 114.914 127.569 115.555 128.011C116.203 128.447 116.981 128.634 117.89 128.57ZM136.841 128.911L134.447 129.078L140.054 109.731L142.412 109.566L150.657 127.945L148.262 128.112L141.515 112.627L141.368 112.638L136.841 128.911ZM137.21 121.481L146.863 120.806L147.004 122.832L137.352 123.507L137.21 121.481ZM158.663 127.681C157.484 127.763 156.422 127.538 155.478 127.006C154.533 126.467 153.768 125.669 153.182 124.612C152.596 123.549 152.25 122.268 152.145 120.769C152.041 119.283 152.206 117.976 152.639 116.848C153.072 115.719 153.722 114.825 154.59 114.166C155.457 113.507 156.486 113.136 157.677 113.052C158.598 112.988 159.336 113.09 159.892 113.36C160.454 113.623 160.889 113.938 161.199 114.305C161.514 114.666 161.76 114.963 161.937 115.198L162.121 115.185L161.634 108.222L163.808 108.07L165.127 126.933L163.027 127.08L162.875 124.906L162.617 124.924C162.475 125.193 162.271 125.534 162.003 125.948C161.736 126.356 161.339 126.732 160.814 127.077C160.289 127.416 159.572 127.617 158.663 127.681ZM158.821 125.708C159.693 125.647 160.414 125.368 160.984 124.872C161.554 124.369 161.967 123.702 162.223 122.869C162.479 122.031 162.57 121.077 162.495 120.009C162.421 118.953 162.203 118.039 161.841 117.269C161.478 116.492 160.98 115.903 160.347 115.503C159.714 115.097 158.956 114.925 158.072 114.987C157.15 115.051 156.399 115.341 155.818 115.857C155.243 116.366 154.83 117.034 154.579 117.86C154.334 118.679 154.247 119.586 154.316 120.581C154.387 121.588 154.604 122.492 154.969 123.293C155.339 124.088 155.845 124.707 156.487 125.149C157.134 125.585 157.912 125.771 158.821 125.708ZM178.663 114.954L176.749 115.643C176.603 115.326 176.4 115.023 176.139 114.732C175.884 114.435 175.546 114.2 175.127 114.026C174.708 113.851 174.182 113.786 173.549 113.83C172.683 113.891 171.976 114.141 171.427 114.581C170.883 115.013 170.632 115.534 170.675 116.142C170.713 116.682 170.939 117.095 171.354 117.381C171.769 117.666 172.401 117.884 173.251 118.035L175.387 118.404C176.673 118.622 177.649 119.026 178.313 119.615C178.977 120.198 179.344 120.984 179.413 121.973C179.469 122.783 179.287 123.524 178.865 124.195C178.449 124.866 177.839 125.415 177.036 125.841C176.233 126.267 175.282 126.519 174.183 126.596C172.74 126.697 171.523 126.467 170.534 125.907C169.545 125.347 168.882 124.474 168.546 123.288L170.573 122.628C170.823 123.375 171.234 123.92 171.807 124.263C172.387 124.605 173.121 124.745 174.012 124.683C175.025 124.612 175.814 124.341 176.38 123.869C176.951 123.391 177.216 122.848 177.173 122.24C177.139 121.749 176.938 121.35 176.571 121.042C176.203 120.728 175.658 120.514 174.934 120.398L172.537 120.01C171.22 119.793 170.235 119.384 169.582 118.782C168.935 118.173 168.577 117.381 168.509 116.404C168.453 115.606 168.628 114.884 169.033 114.239C169.445 113.593 170.028 113.068 170.783 112.663C171.545 112.258 172.423 112.021 173.418 111.952C174.818 111.854 175.938 112.084 176.78 112.642C177.627 113.2 178.255 113.97 178.663 114.954Z" fill="#262626"/>
<rect x="76.2744" y="0.50865" width="170" height="42" rx="21" transform="rotate(1 76.2744 0.50865)" fill="black"/>
<rect x="76.2744" y="0.50865" width="170" height="42" rx="21" transform="rotate(1 76.2744 0.50865)" stroke="black"/>
<path d="M92.964 31.3046L88.1243 12.3081L90.4507 12.3488L94.133 27.8159L94.3177 27.8192L98.6114 12.4912L101.196 12.5363L104.952 28.0048L105.137 28.008L109.357 12.6788L111.683 12.7194L106.184 31.5353L103.82 31.4941L99.9106 16.3554L99.7629 16.3528L95.3273 31.3458L92.964 31.3046ZM118.53 32.0464C117.164 32.0225 115.991 31.7004 115.01 31.0799C114.036 30.4535 113.291 29.5909 112.775 28.4922C112.264 27.3875 112.022 26.1089 112.047 24.6565C112.073 23.2041 112.36 21.9286 112.908 20.8301C113.463 19.7255 114.223 18.8707 115.188 18.2657C116.159 17.6548 117.284 17.3604 118.565 17.3828C119.303 17.3957 120.03 17.5315 120.746 17.7902C121.462 18.049 122.11 18.4605 122.691 19.0247C123.273 19.5827 123.731 20.3171 124.066 21.228C124.401 22.1388 124.557 23.2558 124.534 24.579L124.518 25.5021L113.587 25.3113L113.62 23.4281L122.335 23.5802C122.349 22.7801 122.201 22.0634 121.892 21.4301C121.589 20.7969 121.149 20.2936 120.57 19.9203C119.998 19.5471 119.318 19.3536 118.53 19.3399C117.663 19.3247 116.908 19.527 116.267 19.9468C115.631 20.3605 115.139 20.9059 114.788 21.5831C114.438 22.2604 114.256 22.9898 114.242 23.7714L114.22 25.0269C114.202 26.0977 114.37 27.0087 114.727 27.7599C115.089 28.5049 115.599 29.0771 116.257 29.4765C116.915 29.8696 117.684 30.0739 118.564 30.0893C119.137 30.0993 119.655 30.0283 120.119 29.8763C120.59 29.7183 120.998 29.4792 121.342 29.1589C121.686 28.8325 121.955 28.4247 122.148 27.9356L124.242 28.5631C124.008 29.2732 123.625 29.8944 123.093 30.4269C122.56 30.9532 121.907 31.3604 121.132 31.6485C120.358 31.9305 119.49 32.0631 118.53 32.0464ZM128.016 31.9164L128.346 13.0102L130.525 13.0482L130.403 20.0273L130.588 20.0305C130.752 19.7871 130.979 19.4771 131.269 19.1005C131.565 18.7178 131.983 18.3804 132.524 18.0882C133.071 17.7899 133.806 17.6488 134.729 17.6649C135.923 17.6858 136.97 18.0026 137.871 18.6155C138.771 19.2284 139.467 20.087 139.959 21.1914C140.45 22.2958 140.683 23.5927 140.657 25.082C140.631 26.5837 140.353 27.8809 139.823 28.9736C139.293 30.0602 138.57 30.8971 137.655 31.4844C136.74 32.0656 135.692 32.3459 134.51 32.3253C133.599 32.3094 132.873 32.1459 132.33 31.8347C131.788 31.5175 131.372 31.1624 131.084 30.7695C130.795 30.3705 130.573 30.0403 130.417 29.779L130.159 29.7745L130.121 31.9532L128.016 31.9164ZM130.282 24.864C130.263 25.9348 130.403 26.8823 130.703 27.7063C131.003 28.5241 131.45 29.1691 132.045 29.6412C132.64 30.1072 133.375 30.3478 134.249 30.363C135.16 30.3789 135.924 30.1522 136.542 29.6828C137.165 29.2073 137.638 28.563 137.96 27.7499C138.289 26.9307 138.462 26.0164 138.479 25.0071C138.497 24.0101 138.359 23.1088 138.065 22.3034C137.777 21.4919 137.33 20.8469 136.723 20.3685C136.122 19.8839 135.36 19.6336 134.436 19.6175C133.55 19.602 132.802 19.8137 132.191 20.2524C131.58 20.685 131.113 21.2986 130.792 22.0933C130.47 22.8819 130.3 23.8054 130.282 24.864ZM157.308 32.4277L151.474 32.3259L151.804 13.4197L157.896 13.526C159.73 13.558 161.293 13.9639 162.585 14.7437C163.876 15.5173 164.858 16.6148 165.528 18.0363C166.199 19.4517 166.518 21.1379 166.484 23.095C166.449 25.0644 166.069 26.7538 165.342 28.1632C164.616 29.5664 163.575 30.6379 162.22 31.3776C160.866 32.1112 159.228 32.4612 157.308 32.4277ZM153.798 30.3349L157.196 30.3942C158.759 30.4215 160.06 30.1425 161.098 29.5573C162.136 28.9722 162.917 28.127 163.442 27.0219C163.966 25.9167 164.241 24.5949 164.268 23.0563C164.295 21.53 164.068 20.2117 163.589 19.1014C163.11 17.9849 162.38 17.1226 161.399 16.5145C160.419 15.9002 159.19 15.5802 157.713 15.5544L154.058 15.4906L153.798 30.3349ZM175.803 33.046C174.436 33.0222 173.263 32.7001 172.283 32.0796C171.309 31.4532 170.564 30.5906 170.047 29.4919C169.537 28.3872 169.295 27.1086 169.32 25.6562C169.345 24.2038 169.632 22.9283 170.181 21.8297C170.736 20.7252 171.496 19.8704 172.46 19.2654C173.431 18.6545 174.557 18.3601 175.837 18.3825C176.576 18.3954 177.303 18.5312 178.019 18.7899C178.734 19.0487 179.383 19.4602 179.964 20.0244C180.545 20.5824 181.003 21.3168 181.338 22.2277C181.673 23.1385 181.829 24.2555 181.806 25.5787L181.79 26.5018L170.86 26.311L170.893 24.4278L179.607 24.5799C179.621 23.7798 179.474 23.0631 179.165 22.4298C178.862 21.7966 178.421 21.2933 177.843 20.92C177.271 20.5468 176.591 20.3533 175.803 20.3396C174.935 20.3244 174.181 20.5267 173.539 20.9465C172.904 21.3602 172.411 21.9056 172.061 22.5828C171.71 23.2601 171.528 23.9895 171.515 24.7711L171.493 26.0266C171.474 27.0974 171.643 28.0084 171.999 28.7596C172.362 29.5046 172.872 30.0768 173.53 30.4762C174.188 30.8693 174.957 31.0736 175.837 31.089C176.409 31.0989 176.928 31.028 177.392 30.876C177.863 30.718 178.27 30.4789 178.614 30.1586C178.959 29.8322 179.227 29.4244 179.421 28.9353L181.515 29.5628C181.281 30.2729 180.898 30.8941 180.365 31.4266C179.833 31.9529 179.179 32.3601 178.405 32.6482C177.63 32.9302 176.763 33.0628 175.803 33.046ZM195.229 22.0823L193.263 22.602C193.145 22.2737 192.969 21.9536 192.734 21.6417C192.506 21.3237 192.191 21.0596 191.788 20.8494C191.385 20.6393 190.867 20.5286 190.233 20.5176C189.365 20.5024 188.639 20.6898 188.053 21.0798C187.474 21.4636 187.179 21.9602 187.168 22.5695C187.159 23.1111 187.348 23.5423 187.737 23.863C188.125 24.1838 188.736 24.4561 189.569 24.6799L191.665 25.2336C192.928 25.5635 193.864 26.0508 194.475 26.6955C195.085 27.3341 195.382 28.1488 195.365 29.1397C195.35 29.9521 195.104 30.6742 194.625 31.3061C194.152 31.9381 193.497 32.4315 192.66 32.7862C191.823 33.141 190.853 33.3088 189.752 33.2895C188.305 33.2643 187.114 32.9295 186.177 32.2852C185.24 31.6409 184.656 30.7135 184.425 29.5028L186.502 29.0219C186.685 29.7885 187.048 30.3674 187.589 30.7585C188.136 31.1497 188.856 31.3531 189.748 31.3687C190.764 31.3864 191.574 31.1851 192.178 30.7647C192.789 30.3383 193.1 29.8204 193.11 29.2112C193.119 28.7188 192.954 28.3035 192.615 27.9651C192.276 27.6206 191.751 27.359 191.04 27.1804L188.687 26.5853C187.393 26.2549 186.448 25.7613 185.85 25.1044C185.258 24.4415 184.971 23.6208 184.988 22.6423C185.002 21.8422 185.239 21.1384 185.699 20.5308C186.165 19.9233 186.792 19.451 187.58 19.1138C188.374 18.7768 189.269 18.6169 190.266 18.6343C191.669 18.6588 192.765 18.9858 193.555 19.6152C194.35 20.2447 194.908 21.0671 195.229 22.0823ZM198.575 33.148L198.823 18.9684L201.001 19.0064L200.754 33.1861L198.575 33.148ZM199.972 16.6244C199.547 16.617 199.183 16.466 198.881 16.1714C198.584 15.8769 198.44 15.5265 198.447 15.1203C198.454 14.7141 198.611 14.369 198.917 14.0851C199.23 13.8012 199.599 13.6629 200.023 13.6703C200.448 13.6778 200.809 13.8287 201.105 14.1232C201.408 14.4179 201.556 14.7683 201.548 15.1745C201.541 15.5807 201.381 15.9257 201.069 16.2096C200.762 16.4936 200.396 16.6319 199.972 16.6244ZM210.37 38.9684C209.317 38.95 208.415 38.7989 207.663 38.5148C206.91 38.237 206.286 37.8752 205.789 37.4294C205.298 36.9899 204.909 36.5214 204.622 36.0239L206.379 34.8356C206.571 35.0975 206.815 35.3973 207.111 35.7349C207.407 36.0787 207.814 36.3782 208.333 36.6335C208.858 36.8951 209.548 37.0333 210.403 37.0482C211.548 37.0682 212.498 36.8078 213.252 36.2669C214.006 35.726 214.394 34.8647 214.414 33.6831L214.465 30.8028L214.28 30.7996C214.115 31.0553 213.882 31.3714 213.58 31.7478C213.284 32.1181 212.86 32.4462 212.307 32.7321C211.76 33.0119 211.026 33.1437 210.102 33.1276C208.958 33.1076 207.935 32.8189 207.033 32.2614C206.138 31.7041 205.435 30.9038 204.924 29.8606C204.418 28.8175 204.179 27.5575 204.205 26.0804C204.23 24.628 204.507 23.3677 205.037 22.2996C205.567 21.2254 206.292 20.4008 207.213 19.8259C208.135 19.2448 209.192 18.9647 210.386 18.9855C211.309 19.0017 212.039 19.1683 212.575 19.4855C213.118 19.7966 213.53 20.1485 213.813 20.5413C214.101 20.928 214.324 21.2459 214.479 21.4949L214.701 21.4987L214.74 19.2462L216.845 19.283L216.59 33.8688C216.569 35.0874 216.275 36.0734 215.708 36.8269C215.147 37.5866 214.398 38.1368 213.463 38.4776C212.533 38.8246 211.502 38.9882 210.37 38.9684ZM210.432 31.1757C211.306 31.1909 212.048 31.0038 212.658 30.6143C213.268 30.2248 213.737 29.6574 214.064 28.912C214.391 28.1667 214.563 27.2709 214.581 26.2246C214.599 25.203 214.461 24.2987 214.167 23.5117C213.873 22.7248 213.428 22.1044 212.833 21.6508C212.238 21.1972 211.497 20.9626 210.61 20.9471C209.687 20.931 208.914 21.1515 208.29 21.6085C207.673 22.0655 207.203 22.6853 206.882 23.4677C206.567 24.2502 206.401 25.1215 206.384 26.0815C206.367 27.0662 206.505 27.9398 206.8 28.7021C207.101 29.4584 207.552 30.0573 208.154 30.4988C208.762 30.9341 209.521 31.1598 210.432 31.1757ZM222.913 25.0403L222.764 33.5703L220.586 33.5322L220.833 19.3526L222.938 19.3893L222.899 21.6049L223.084 21.6081C223.429 20.8938 223.943 20.3241 224.628 19.899C225.313 19.4677 226.191 19.2614 227.261 19.2801C228.222 19.2969 229.058 19.5085 229.771 19.9149C230.485 20.3152 231.034 20.9158 231.421 21.7167C231.807 22.5114 231.989 23.5119 231.968 24.7182L231.811 33.7282L229.632 33.6901L229.787 24.8279C229.807 23.7139 229.532 22.8411 228.965 22.2094C228.397 21.5716 227.609 21.2438 226.6 21.2262C225.904 21.2141 225.28 21.354 224.727 21.646C224.18 21.9381 223.745 22.3707 223.421 22.9437C223.097 23.5168 222.927 24.2156 222.913 25.0403Z" fill="#FAFAFA"/>
<rect x="1.98273" y="44.5171" width="180" height="42" rx="21" transform="rotate(2 1.98273 44.5171)" stroke="#262626"/>
<path d="M25.5291 61.6676C25.4511 60.7287 25.0273 59.9871 24.258 59.4429C23.4886 58.8986 22.5319 58.6065 21.3877 58.5666C20.5511 58.5374 19.8143 58.6471 19.1774 58.8959C18.5466 59.1449 18.0477 59.5001 17.6805 59.9615C17.3195 60.4231 17.1284 60.9554 17.1074 61.5582C17.0897 62.0627 17.1946 62.5005 17.4218 62.8719C17.6554 63.2372 17.9587 63.5465 18.3317 63.7998C18.705 64.0468 19.098 64.2546 19.511 64.423C19.9241 64.5852 20.3044 64.7186 20.6518 64.8231L22.5531 65.4069C23.0407 65.5532 23.5819 65.7508 24.1768 65.9994C24.7779 66.2483 25.3484 66.5793 25.8883 66.9923C26.4345 67.3994 26.8785 67.9138 27.2202 68.5354C27.5618 69.1571 27.7172 69.9109 27.6863 70.7967C27.6506 71.8179 27.3508 72.7312 26.7868 73.5369C26.229 74.3427 25.431 74.9708 24.3929 75.4211C23.3609 75.8716 22.1191 76.0715 20.6673 76.0208C19.314 75.9736 18.1497 75.7143 17.1746 75.2429C16.2056 74.7718 15.4517 74.1357 14.9131 73.3347C14.3806 72.5339 14.0954 71.6155 14.0577 70.5795L16.4199 70.6619C16.4565 71.3777 16.6758 71.9766 17.0778 72.4587C17.4861 72.9349 18.0093 73.2981 18.6472 73.5483C19.2916 73.7925 19.989 73.9277 20.7395 73.9539C21.613 73.9844 22.4023 73.8703 23.1073 73.6116C23.8125 73.3468 24.377 72.9661 24.8008 72.4697C25.2249 71.9672 25.4489 71.3714 25.473 70.6825C25.4949 70.055 25.3374 69.5383 25.0005 69.1324C24.6636 68.7264 24.2134 68.3904 23.6499 68.1244C23.0864 67.8583 22.4757 67.6214 21.8178 67.4137L19.5157 66.6681C18.0542 66.1921 16.9065 65.5454 16.0728 64.7279C15.2391 63.9104 14.8445 62.865 14.8889 61.5916C14.9259 60.5336 15.2442 59.6208 15.8437 58.8534C16.4497 58.08 17.2463 57.4919 18.2335 57.0891C19.227 56.6804 20.3267 56.497 21.5324 56.5392C22.7504 56.5817 23.8254 56.8379 24.7575 57.3077C25.6898 57.7714 26.4197 58.3882 26.9471 59.158C27.4807 59.928 27.7462 60.7903 27.7437 61.7449L25.5291 61.6676ZM36.7218 76.5445C35.4423 76.4998 34.3303 76.1561 33.3858 75.5134C32.4474 74.8709 31.7266 73.9927 31.2235 72.8788C30.7266 71.7651 30.5037 70.4763 30.5548 69.0122C30.6064 67.5358 30.919 66.2564 31.4926 65.174C32.0724 64.0918 32.8527 63.2629 33.8336 62.6874C34.8207 62.1121 35.954 61.8468 37.2335 61.8915C38.513 61.9362 39.622 62.2798 40.5604 62.9223C41.5049 63.565 42.2255 64.4463 42.7223 65.5661C43.2251 66.6862 43.4508 67.9844 43.3993 69.4607C43.3481 70.9248 43.0328 72.1949 42.4532 73.2709C41.8798 74.3472 41.0995 75.173 40.1125 75.7483C39.1316 76.3238 38.0014 76.5892 36.7218 76.5445ZM36.7901 74.5883C37.7621 74.6223 38.5705 74.401 39.2153 73.9247C39.8602 73.4483 40.3475 72.8094 40.6773 72.0079C41.0071 71.2064 41.1885 70.332 41.2216 69.3847C41.2547 68.4374 41.1348 67.5493 40.8619 66.7207C40.5891 65.892 40.1477 65.2145 39.5379 64.6881C38.9281 64.1618 38.1372 63.8816 37.1652 63.8477C36.1933 63.8138 35.3848 64.0381 34.7397 64.5206C34.0946 65.0031 33.6071 65.6482 33.2771 66.4558C32.9471 67.2634 32.7655 68.1409 32.7325 69.0882C32.6994 70.0356 32.8194 70.9205 33.0924 71.743C33.3655 72.5656 33.8071 73.2369 34.4171 73.7571C35.0272 74.2773 35.8182 74.5544 36.7901 74.5883ZM52.2261 77.0859C50.8973 77.0395 49.7641 76.6858 48.8264 76.0249C47.8886 75.3639 47.1806 74.4738 46.7023 73.3547C46.2241 72.2355 46.0096 70.9685 46.059 69.5536C46.1093 68.1142 46.4182 66.8531 46.9857 65.7704C47.5595 64.6819 48.334 63.8436 49.3092 63.2555C50.2908 62.6616 51.4213 62.387 52.7008 62.4316C53.6974 62.4664 54.5891 62.6824 55.3759 63.0794C56.1627 63.4764 56.7998 64.016 57.2872 64.6982C57.7745 65.3804 58.0643 66.1666 58.1564 67.0567L55.9787 66.9806C55.8352 66.3289 55.4861 65.7439 54.9314 65.2257C54.3831 64.7015 53.6291 64.4226 52.6694 64.3891C51.8205 64.3595 51.0684 64.5549 50.4132 64.9755C49.7644 65.3901 49.2476 65.9911 48.8629 66.7783C48.4845 67.5596 48.2766 68.4855 48.2393 69.5558C48.201 70.6508 48.34 71.6103 48.6561 72.4344C48.9784 73.2586 49.4485 73.9063 50.0664 74.3775C50.6905 74.8489 51.4331 75.0997 52.2944 75.1297C52.8603 75.1495 53.3774 75.069 53.8456 74.8883C54.3139 74.7075 54.7144 74.4382 55.0472 74.0803C55.3799 73.7224 55.623 73.2874 55.7764 72.7754L57.954 72.8514C57.8018 73.6838 57.471 74.4267 56.9616 75.0802C56.4586 75.7278 55.8034 76.2346 54.9961 76.6006C54.1952 76.9607 53.2718 77.1225 52.2261 77.0859ZM60.9931 77.0964L61.488 62.9233L63.6657 62.9993L63.1707 77.1725L60.9931 77.0964ZM62.6778 60.5997C62.2533 60.5849 61.8924 60.4276 61.5949 60.1277C61.3036 59.8281 61.165 59.4752 61.1792 59.0692C61.1933 58.6632 61.3562 58.3209 61.6677 58.0423C61.9854 57.764 62.3565 57.6322 62.7809 57.647C63.2054 57.6618 63.5633 57.8191 63.8546 58.1187C64.1521 58.4186 64.2937 58.7715 64.2796 59.1775C64.2654 59.5835 64.0994 59.9257 63.7818 60.2041C63.4703 60.4827 63.1023 60.6146 62.6778 60.5997ZM71.3184 77.7896C70.4203 77.7582 69.6111 77.5606 68.8909 77.1967C68.1709 76.8267 67.6069 76.3112 67.1988 75.6502C66.791 74.9831 66.6032 74.1882 66.6354 73.2655C66.6637 72.4535 66.8467 71.8008 67.1842 71.3076C67.5219 70.8082 67.9634 70.4232 68.5086 70.1528C69.0539 69.8824 69.652 69.6877 70.3029 69.5688C70.9601 69.4439 71.6193 69.3499 72.2805 69.2868C73.1456 69.2061 73.8467 69.1474 74.3838 69.1108C74.9273 69.0681 75.3246 68.9804 75.5756 68.8475C75.8327 68.7148 75.9674 68.4732 75.9797 68.1225L75.9822 68.0487C76.014 67.1383 75.7896 66.4222 75.3089 65.9003C74.8344 65.3787 74.0958 65.1004 73.0931 65.0654C72.0535 65.0291 71.2305 65.2282 70.624 65.6628C70.0176 66.0974 69.5854 66.5689 69.3274 67.0772L67.2863 66.2669C67.6854 65.4185 68.201 64.7652 68.8329 64.3069C69.4712 63.8426 70.1597 63.5279 70.8984 63.3627C71.6434 63.1917 72.3727 63.1186 73.0863 63.1435C73.5415 63.1594 74.0625 63.233 74.6492 63.3644C75.2422 63.4898 75.8098 63.7283 76.3518 64.0798C76.9 64.4315 77.3469 64.9491 77.6926 65.6325C78.0383 66.3159 78.1915 67.2205 78.1521 68.3462L77.8261 77.6843L75.6484 77.6082L75.7154 75.6889L75.6047 75.6851C75.4463 75.9875 75.1888 76.308 74.832 76.6466C74.4753 76.9852 74.0066 77.2676 73.4259 77.4937C72.8452 77.7197 72.1427 77.8184 71.3184 77.7896ZM71.7189 75.845C72.5801 75.8751 73.3119 75.7313 73.9143 75.4136C74.5228 75.0961 74.9871 74.675 75.3072 74.1503C75.6335 73.6259 75.8069 73.0684 75.8276 72.4778L75.8972 70.4847C75.801 70.5922 75.5945 70.6866 75.2775 70.768C74.9669 70.8433 74.6075 70.9078 74.1991 70.9613C73.7971 71.0088 73.4045 71.0505 73.0214 71.0864C72.6447 71.1164 72.3389 71.1427 72.1041 71.1653C71.5355 71.2193 71.0023 71.3208 70.5044 71.4697C70.0128 71.6127 69.6106 71.8419 69.2978 72.1574C68.9914 72.467 68.8285 72.8986 68.8092 73.4522C68.7827 74.2089 69.0427 74.7907 69.5889 75.1978C70.1415 75.599 70.8515 75.8147 71.7189 75.845ZM84.6383 59.0015L83.9784 77.8991L81.8007 77.8231L82.4606 58.9255L84.6383 59.0015ZM96.2301 59.4063L98.9614 59.5017L104.836 75.4124L105.057 75.4202L112.027 59.958L114.759 60.0534L114.099 78.9509L111.958 78.8762L112.459 64.5185L112.275 64.512L105.868 78.6635L103.801 78.5913L98.3969 64.0274L98.2123 64.0209L97.711 78.3787L95.5702 78.3039L96.2301 59.4063ZM124.324 79.6036C122.958 79.556 121.791 79.2134 120.821 78.5759C119.858 77.9326 119.128 77.0571 118.631 75.9496C118.14 74.8362 117.92 73.5536 117.971 72.1018C118.022 70.65 118.331 69.3797 118.899 68.2909C119.473 67.1962 120.247 66.3548 121.222 65.7668C122.204 65.1729 123.335 64.8982 124.614 64.9429C125.352 64.9687 126.077 65.1172 126.788 65.3884C127.499 65.6596 128.14 66.0823 128.712 66.6566C129.283 67.2247 129.728 67.967 130.047 68.8835C130.366 69.8 130.503 70.9196 130.457 72.2422L130.424 73.1649L119.499 72.7834L119.565 70.901L128.276 71.2052C128.303 70.4055 128.168 69.6863 127.87 69.0477C127.579 68.4093 127.147 67.8984 126.575 67.515C126.01 67.1319 125.333 66.9266 124.546 66.8991C123.678 66.8688 122.92 67.0579 122.272 67.4664C121.629 67.8689 121.127 68.4057 120.765 69.0767C120.403 69.7477 120.208 70.4739 120.181 71.2551L120.137 72.51C120.1 73.5804 120.252 74.4942 120.596 75.2514C120.945 76.0027 121.445 76.5837 122.096 76.9945C122.747 77.3991 123.512 77.6167 124.392 77.6474C124.964 77.6674 125.484 77.6055 125.951 77.4617C126.424 77.3119 126.836 77.0799 127.185 76.7657C127.535 76.4453 127.811 76.0423 128.013 75.5566L130.096 76.2206C129.85 76.9265 129.455 77.5409 128.914 78.064C128.372 78.581 127.712 78.9767 126.932 79.2513C126.153 79.5197 125.283 79.6372 124.324 79.6036ZM138.857 80.1111C137.676 80.0699 136.643 79.7351 135.76 79.1069C134.877 78.4724 134.199 77.5988 133.727 76.486C133.255 75.367 133.045 74.0571 133.097 72.5561C133.149 71.0674 133.449 69.7845 133.998 68.7074C134.547 67.6302 135.287 66.8092 136.218 66.2443C137.15 65.6794 138.212 65.4178 139.405 65.4594C140.328 65.4917 141.052 65.6709 141.576 65.9972C142.107 66.3175 142.507 66.6764 142.777 67.0738C143.052 67.4653 143.266 67.7869 143.417 68.0385L143.602 68.045L143.845 61.0691L146.023 61.1451L145.363 80.0427L143.259 79.9693L143.335 77.7916L143.077 77.7826C142.908 78.0354 142.669 78.3534 142.36 78.7368C142.051 79.1141 141.618 79.4469 141.06 79.7354C140.501 80.0177 139.767 80.1429 138.857 80.1111ZM139.22 78.1653C140.094 78.1958 140.84 77.9939 141.459 77.5598C142.078 77.1195 142.558 76.4988 142.9 75.6977C143.243 74.8905 143.433 73.9517 143.47 72.8814C143.507 71.8233 143.385 70.8921 143.106 70.0878C142.826 69.2774 142.392 68.6402 141.805 68.1762C141.218 67.7061 140.481 67.4556 139.595 67.4246C138.673 67.3924 137.896 67.6024 137.264 68.0546C136.639 68.5008 136.158 69.1215 135.822 69.9166C135.493 70.7058 135.311 71.5987 135.276 72.5952C135.241 73.6041 135.363 74.526 135.641 75.3611C135.927 76.1902 136.365 76.8584 136.957 77.3656C137.556 77.8669 138.31 78.1335 139.22 78.1653ZM149.654 80.1926L150.149 66.0194L152.326 66.0954L151.832 80.2686L149.654 80.1926ZM151.339 63.6958C150.914 63.681 150.553 63.5237 150.256 63.2238C149.964 62.9242 149.826 62.5713 149.84 62.1653C149.854 61.7593 150.017 61.417 150.329 61.1384C150.646 60.8601 151.017 60.7283 151.442 60.7431C151.866 60.7579 152.224 60.9152 152.515 61.2148C152.813 61.5147 152.955 61.8676 152.94 62.2736C152.926 62.6796 152.76 63.0218 152.443 63.3002C152.131 63.5788 151.763 63.7107 151.339 63.6958ZM159.979 80.8857C159.081 80.8543 158.272 80.6567 157.552 80.2928C156.832 79.9228 156.268 79.4073 155.86 78.7463C155.452 78.0792 155.264 77.2843 155.296 76.3616C155.325 75.5496 155.507 74.8969 155.845 74.4037C156.183 73.9043 156.624 73.5193 157.169 73.2489C157.715 72.9785 158.313 72.7838 158.964 72.6649C159.621 72.54 160.28 72.446 160.941 72.3829C161.806 72.3022 162.508 72.2435 163.045 72.2069C163.588 72.1643 163.985 72.0765 164.236 71.9436C164.494 71.8109 164.628 71.5693 164.64 71.2186L164.643 71.1448C164.675 70.2344 164.45 69.5183 163.97 68.9964C163.495 68.4748 162.757 68.1965 161.754 68.1615C160.714 68.1252 159.891 68.3243 159.285 68.7589C158.678 69.1935 158.246 69.665 157.988 70.1733L155.947 69.363C156.346 68.5146 156.862 67.8613 157.494 67.403C158.132 66.9387 158.82 66.624 159.559 66.4589C160.304 66.2878 161.034 66.2147 161.747 66.2396C162.202 66.2555 162.723 66.3291 163.31 66.4605C163.903 66.5859 164.471 66.8244 165.013 67.1759C165.561 67.5276 166.008 68.0452 166.353 68.7286C166.699 69.412 166.852 70.3166 166.813 71.4423L166.487 80.7804L164.309 80.7043L164.376 78.785L164.266 78.7812C164.107 79.0836 163.85 79.4041 163.493 79.7427C163.136 80.0813 162.667 80.3637 162.087 80.5898C161.506 80.8158 160.804 80.9145 159.979 80.8857ZM160.38 78.9411C161.241 78.9712 161.973 78.8274 162.575 78.5097C163.184 78.1922 163.648 77.7711 163.968 77.2464C164.294 76.722 164.468 76.1645 164.488 75.5739L164.558 73.5808C164.462 73.6883 164.255 73.7827 163.938 73.8641C163.628 73.9394 163.268 74.0039 162.86 74.0574C162.458 74.1049 162.065 74.1466 161.682 74.1825C161.305 74.2125 161 74.2388 160.765 74.2614C160.196 74.3154 159.663 74.4169 159.165 74.5658C158.674 74.7088 158.271 74.938 157.959 75.2535C157.652 75.5631 157.489 75.9947 157.47 76.5483C157.444 77.305 157.703 77.8868 158.25 78.2939C158.802 78.6951 159.512 78.9108 160.38 78.9411Z" fill="#262626"/>
<circle cx="32" cy="118" r="24.25" fill="black" stroke="black" stroke-width="1.5"/>
<g clip-path="url(#clip0_33_837)">
<path d="M31.5241 127C31.2245 127 30.9712 126.783 30.8986 126.492C30.6673 125.566 30.2246 124.58 29.5703 123.536C28.7951 122.283 27.6901 121.12 26.2552 120.048C25.0072 119.105 23.7592 118.462 22.5112 118.119C22.2157 118.037 22 117.775 22 117.469C22 117.168 22.2074 116.909 22.4963 116.827C23.7199 116.477 24.8987 115.91 26.0326 115.125C27.3355 114.218 28.424 113.129 29.2982 111.859C30.0715 110.728 30.6023 109.609 30.8907 108.503C30.9662 108.213 31.2214 108 31.521 108C31.8239 108 32.0808 108.218 32.1545 108.511C32.321 109.175 32.5811 109.854 32.9349 110.548C33.3802 111.406 33.9492 112.23 34.6419 113.022C35.3511 113.797 36.1428 114.498 37.0169 115.125C38.1592 115.935 39.3204 116.504 40.5007 116.832C40.7902 116.912 41 117.17 41 117.47C41 117.775 40.7839 118.035 40.4898 118.116C39.7416 118.321 38.9716 118.652 38.1797 119.108C37.2231 119.669 36.3325 120.337 35.5078 121.112C34.6832 121.871 34.007 122.671 33.4791 123.512C32.8236 124.558 32.3804 125.551 32.1495 126.491C32.0779 126.782 31.8242 127 31.5241 127Z" fill="#FCD34D"/>
</g>
<defs>
<clipPath id="clip0_33_837">
<rect width="19" height="19" fill="white" transform="translate(22 108)"/>
</clipPath>
</defs>
</svg>
