<svg width="31" height="24" viewBox="0 0 31 24" fill="none" xmlns="http://www.w3.org/2000/svg">
<path d="M14.2648 17.4556C14.2648 19.1303 13.6007 20.5694 12.2725 21.773C10.9974 22.9243 9.37704 23.5 7.41131 23.5C5.12682 23.5 3.32048 22.715 1.99229 21.1451C0.664096 19.5751 0 17.7173 0 15.5717C0 10.7048 1.35476 7.04152 4.06427 4.58191C6.77378 2.1223 9.77549 0.761661 13.0694 0.5V5.83788C11.4756 5.99488 9.96144 6.62287 8.52699 7.72184C7.14567 8.82082 6.40189 10.2076 6.29563 11.8822C6.82691 11.6206 7.41131 11.4898 8.04884 11.4898C10.0146 11.4898 11.5287 12.0392 12.5913 13.1382C13.7069 14.2372 14.2648 15.6763 14.2648 17.4556ZM31 17.4556C31 19.1303 30.3359 20.5694 29.0077 21.773C27.7326 22.9243 26.1123 23.5 24.1465 23.5C21.862 23.5 20.0557 22.715 18.7275 21.1451C17.4524 19.5751 16.8149 17.7173 16.8149 15.5717C16.8149 10.7048 18.1431 7.04152 20.7995 4.58191C23.509 2.1223 26.5107 0.761661 29.8046 0.5V5.83788C28.2108 5.99488 26.6967 6.62287 25.2622 7.72184C23.8809 8.82082 23.1371 10.2076 23.0308 11.8822C23.5621 11.6206 24.1465 11.4898 24.7841 11.4898C26.7498 11.4898 28.2639 12.0392 29.3265 13.1382C30.4422 14.2372 31 15.6763 31 17.4556Z" fill="black"/>
</svg>
